<svg xmlns="http://www.w3.org/2000/svg" viewBox="0 0 25.68 49.13"><defs></defs><path fill="#fff" d="M24.8,8.37a3.7,3.7,0,0,0,2.71-1.25,3.85,3.85,0,0,0,1-2.82,4,4,0,0,0-1.2-2.77A3.6,3.6,0,0,0,24.59.44a3.7,3.7,0,0,0-2.71,1.25,4,4,0,0,0-1.1,2.82A3.69,3.69,0,0,0,22,7.28,3.76,3.76,0,0,0,24.8,8.37Z" transform="translate(-13.16 -0.44)"/><path fill="#fff" d="M38,21.58l-5.74-3.13-4.7-7.52a4.15,4.15,0,0,0-3.34-1.67,3.84,3.84,0,0,0-2.61,1.15l-7.1,7.2a2.3,2.3,0,0,0-.42.94l-.94,8v.21a1.78,1.78,0,0,0,1.77,1.77,1.54,1.54,0,0,0,1.2-.52,2.25,2.25,0,0,0,.57-1.15L17.44,20l2.51-2.51-2.3,19.21-4.07,9.08a3.65,3.65,0,0,0-.21,1.15,2.63,2.63,0,0,0,.78,1.93,2.31,2.31,0,0,0,1.93.68,2.42,2.42,0,0,0,2.3-1.46l4.38-9.81a1.19,1.19,0,0,1,.1-.37q.1-.26.21-.47a.93.93,0,0,0,.1-.42l.52-4.7,4.49,15.45a2.46,2.46,0,0,0,2.61,1.77,2.5,2.5,0,0,0,1.83-.78,2.63,2.63,0,0,0,.78-1.93.85.85,0,0,0-.05-.26.86.86,0,0,1-.05-.26L27,24.92l.73-7,1.77,2.82a1.86,1.86,0,0,0,.52.52l6.16,3.44a3.42,3.42,0,0,0,.84.21,1.63,1.63,0,0,0,1.25-.57,1.89,1.89,0,0,0,.52-1.3A1.64,1.64,0,0,0,38,21.58Z" transform="translate(-13.16 -0.44)"/></svg>
